<?xml version="1.0" encoding="UTF-8"?> <svg xmlns="http://www.w3.org/2000/svg" xmlns:xlink="http://www.w3.org/1999/xlink" version="1.1" id="Logo_FINAL" x="0px" y="0px" viewBox="0 0 316 119" style="enable-background:new 0 0 316 119;" xml:space="preserve"> <style type="text/css"> .st0{fill:none;stroke:#333333;stroke-miterlimit:10;} .st1{fill:#DEFD0A;} .st2{fill:#333333;} .st3{fill-rule:evenodd;clip-rule:evenodd;fill:none;stroke:#0DB2C1;stroke-miterlimit:10;} .st4{fill:#F42F29;} .st5{fill:#0DB2C1;} </style> <g> <g> <g> <g> <path class="st1" d="M22.6,109.27c0.86-2.18,2.36-4.02,4.78-4.4c1.94-0.3,3.94,0.24,5.76,0.87c1.76,0.61,3.44,1.41,5.17,2.11 c1.53,0.62,3.12,0.95,4.73,1.3c4.6,0.98,9.88,2.12,14.55,1.01c2.05-0.49,3.93-1.79,4.71-3.8c0.82-2.13,0.3-4.43,0.36-6.65 c0.04-1.4,0.28-2.27,1.68-2.6c0.87-0.21,1.71-0.46,2.24-1.25c1.1-1.62,0.02-3.91-0.99-5.32c-0.04,0.3-0.08,0.61-0.12,0.91 c0.86-0.89,1.77-2.16,1.97-3.4c0.1-0.62-0.01-1.24-0.21-1.83c-0.13-0.38-0.3-0.75-0.46-1.11c-0.19-0.42-0.77-1.14-0.67-1.62 c0.12-0.6,0.95-0.97,1.42-1.24c0.95-0.55,1.93-1.03,2.87-1.59c1.4-0.83,3.1-1.82,3.67-3.46c0.47-1.36-0.03-2.75-0.72-3.94 c-1.12-1.95-2.72-3.59-4.07-5.38c-2.73-3.63-4.05-8.05-3.88-12.58c0.08-2.31,0.56-4.59,0.77-6.89c0.21-2.26,0.27-4.53,0.11-6.8 c-0.27-3.75-1.02-7.37-2.57-10.79c-3.26-7.23-8.51-14.18-14.74-19.11C41.4,5.73,31.78,2.53,22.3,1.28 c-0.95-0.13-0.95,1.38,0,1.5c8.46,1.11,16.96,3.89,24,8.8c6.38,4.45,11.52,11.05,15.1,17.91c1.63,3.12,2.65,6.27,3.13,9.76 c0.63,4.57,0.2,9.04-0.41,13.58c-0.53,3.94-0.13,7.96,1.44,11.63c0.78,1.81,1.83,3.47,3.06,5.01c1.3,1.63,2.82,3.21,3.73,5.11 c2.01,4.2-5.08,5.25-7.13,7.53c-1.13,1.25-0.33,2.49,0.26,3.78c0.43,0.94,0.69,1.73,0.21,2.69c-0.32,0.64-0.77,1.31-1.27,1.83 c-0.21,0.22-0.31,0.64-0.12,0.91c0.81,1.13,2.18,3.58,0.23,4.22c-0.71,0.23-1.42,0.25-2.05,0.7c-0.85,0.6-1.14,1.64-1.26,2.63 c-0.24,2.16,0.42,4.43-0.18,6.56c-0.71,2.51-3.24,3.38-5.58,3.56c-4.69,0.38-9.51-0.67-14.05-1.73 c-3.42-0.79-6.44-2.72-9.86-3.55c-1.93-0.47-4.03-0.64-5.92,0.1c-2.26,0.89-3.61,2.88-4.47,5.07 C20.8,109.77,22.25,110.16,22.6,109.27L22.6,109.27z"></path> </g> </g> <g> <g> <path class="st2" d="M25.54,110.67c0.76-1.93,2.09-3.59,4.23-3.94c1.83-0.3,3.73,0.24,5.44,0.82c1.79,0.61,3.5,1.42,5.25,2.13 c1.61,0.65,3.29,0.99,4.98,1.35c4.72,0.99,10.11,2.12,14.9,0.97c2.32-0.56,4.39-2.08,5.24-4.35c0.88-2.34,0.26-4.79,0.4-7.2 c0.07-1.16,0.19-1.4,1.21-1.64c1.04-0.25,2.02-0.64,2.63-1.58c1.24-1.91,0.2-4.46-1-6.12c-0.08,0.61-0.16,1.21-0.23,1.82 c0.98-1.01,1.97-2.45,2.19-3.86c0.12-0.78-0.01-1.55-0.28-2.29c-0.18-0.5-1.17-1.93-1.06-2.38c0.01-0.03,0.9-0.55,1.05-0.63 c0.92-0.53,1.87-1,2.79-1.54c1.63-0.96,3.55-2.11,4.18-4.02c1.24-3.76-2.91-7.34-4.9-9.97c-2.67-3.53-3.97-7.8-3.84-12.21 c0.07-2.38,0.56-4.73,0.79-7.1c0.21-2.29,0.28-4.58,0.11-6.87c-0.29-3.97-1.09-7.75-2.73-11.37 c-3.35-7.38-8.72-14.46-15.1-19.48C44.01,5.06,34.19,1.81,24.45,0.53c-0.81-0.11-1.49,0.77-1.5,1.5c-0.01,0.9,0.7,1.4,1.5,1.5 c8.38,1.1,16.78,3.88,23.76,8.71c6.38,4.42,11.5,11.02,15.07,17.85c1.63,3.11,2.65,6.26,3.12,9.74 c0.61,4.47,0.19,8.87-0.41,13.32c-0.57,4.17-0.16,8.38,1.51,12.27c0.82,1.92,1.93,3.64,3.23,5.27c1.26,1.58,2.81,3.15,3.65,5.01 c0.82,1.81-0.58,2.67-2.04,3.58c-1.62,1-3.7,1.7-5.03,3.1c-1.47,1.56-0.61,3.09,0.12,4.75c0.31,0.7,0.56,1.26,0.21,1.97 c-0.29,0.6-0.7,1.22-1.17,1.7c-0.43,0.44-0.62,1.28-0.23,1.82c0.49,0.68,1.85,2.65,0.73,3.16c-0.71,0.32-1.5,0.29-2.19,0.72 c-1.05,0.66-1.52,1.8-1.69,2.97c-0.33,2.24,0.43,4.64-0.21,6.83c-0.63,2.16-2.83,2.88-4.86,3.05c-4.7,0.4-9.53-0.66-14.09-1.72 c-3.39-0.79-6.4-2.69-9.79-3.52c-2.14-0.52-4.45-0.7-6.53,0.13c-2.52,1-4,3.19-4.97,5.63 C21.93,111.67,24.83,112.45,25.54,110.67L25.54,110.67z"></path> </g> </g> <g> <g> <g> <polygon class="st2" points="10.11,51.34 7.55,45.31 2.63,49.27 3.85,52.14 "></polygon> <polygon class="st2" points="19.58,55.15 25.6,52.58 26.41,58.84 23.53,60.07 "></polygon> <polygon class="st2" points="26.84,37.09 29.4,43.11 34.32,39.16 33.1,36.28 "></polygon> <polygon class="st2" points="17.4,33.28 11.38,35.85 10.57,29.58 13.44,28.36 "></polygon> <polygon class="st2" points="17.6,55.17 11.53,52.72 10.84,59 13.74,60.16 "></polygon> <polygon class="st2" points="26.98,51.17 29.43,45.09 34.43,48.95 33.26,51.85 "></polygon> <polygon class="st2" points="19.35,33.26 25.42,35.71 26.1,29.43 23.21,28.27 "></polygon> <polygon class="st2" points="9.98,37.25 7.54,43.32 2.54,39.46 3.71,36.57 "></polygon> </g> <g> <path class="st2" d="M5.47,46.06c1.02,7.18,7.67,12.18,14.85,11.16s12.18-7.67,11.16-14.85c-1.02-7.18-7.67-12.18-14.85-11.16 C9.45,32.23,4.45,38.88,5.47,46.06z M27.65,42.91c0.72,5.06-2.8,9.75-7.87,10.47s-9.75-2.8-10.47-7.87 c-0.72-5.06,2.8-9.75,7.87-10.47S26.93,37.85,27.65,42.91z"></path> </g> <circle class="st2" cx="18.48" cy="44.21" r="6.31"></circle> </g> <g> <g> <polygon class="st2" points="38.62,32.07 33.29,32.33 34.9,36.67 37.44,36.55 "></polygon> <polygon class="st2" points="41.96,28.4 41.7,23.08 46.17,24.26 46.3,26.8 "></polygon> <polygon class="st2" points="32.64,19.99 37.96,19.72 36.35,15.38 33.81,15.51 "></polygon> <polygon class="st2" points="29.35,23.64 29.61,28.96 25.13,27.78 25.01,25.24 "></polygon> <polygon class="st2" points="42.02,28.2 38.44,32.15 42.65,34.08 44.36,32.2 "></polygon> <polygon class="st2" points="41.79,23.25 37.84,19.67 41.84,17.33 43.72,19.04 "></polygon> <polygon class="st2" points="29.25,23.89 32.83,19.94 28.62,18.01 26.91,19.89 "></polygon> <polygon class="st2" points="29.5,28.79 33.45,32.37 29.45,34.71 27.57,33 "></polygon> </g> <g> <path class="st2" d="M27.67,27.16c0.63,4.41,4.71,7.48,9.12,6.85c4.41-0.63,7.48-4.71,6.85-9.12 c-0.63-4.41-4.71-7.48-9.12-6.85C30.11,18.66,27.04,22.75,27.67,27.16z M40.42,25.35c0.37,2.63-1.46,5.07-4.09,5.45 c-2.63,0.37-5.07-1.46-5.45-4.09c-0.37-2.63,1.46-5.07,4.09-5.45C37.61,20.88,40.05,22.71,40.42,25.35z"></path> </g> <circle class="st2" cx="35.65" cy="26.02" r="3.24"></circle> </g> </g> </g> <g> <g> <path class="st2" d="M103.54,50.55c0-3.04-0.9-4.63-5.93-4.63c-5.23,0-5.73,1.69-6.32,4.73h-4.38c0.5-6.42,3.83-8.42,10.91-8.42 c5.78,0,10.11,1.34,10.11,7.22v19.42h-4.38v-2.84c-2.14,2.04-4.63,3.49-9.11,3.49c-5.58,0-8.47-2.24-8.47-7.02 c0-3.44,1.49-7.57,8.02-8.42l6.08-0.8v3.59l-3.93,0.55c-4.03,0.55-5.58,1.59-5.58,4.53c0,3.04,1.69,3.88,5.03,3.88 c4.98,0,7.97-1.89,7.97-6.72V50.55z"></path> <path class="st2" d="M123.67,46.12c1.49-2.04,3.73-3.88,8.52-3.88c5.83,0,8.57,2.74,8.57,9.56v17.08h-4.38V52.99 c0-5.08-0.55-6.97-5.43-6.97c-4.08,0-6.92,1.34-6.92,8.72v14.14h-4.38V42.93h4.03V46.12z"></path> <path class="st2" d="M149.46,68.88l9.26-13.4l-8.72-12.55h5.58l5.93,9.06l6.13-9.06h5.33l-8.86,12.45l9.36,13.5h-5.53l-6.57-9.91 l-6.47,9.91H149.46z"></path> <path class="st2" d="M184.42,32.82c2.09,0,2.84,0.75,2.84,2.84c0,2.09-0.75,2.79-2.84,2.79s-2.79-0.7-2.79-2.79 C181.64,33.57,182.33,32.82,184.42,32.82z M182.23,68.88V42.93h4.38v25.95H182.23z"></path> <path class="st2" d="M215.9,60.86h4.43c-0.4,4.03-2.44,8.67-11.4,8.67c-8.72,0-12-4.38-12-13.2c0-8.91,3.34-14.09,12.2-14.09 c8.52,0,11.4,4.83,11.4,14.99h-15.54v-3.69h11.06c-0.35-4.63-1.49-7.52-6.97-7.52c-5.48,0-7.57,2.04-7.57,10.11 c0,7.17,1.84,9.61,7.77,9.61C213.26,65.74,215.4,64.7,215.9,60.86z M206.34,39.55l4.03-6.97h5.73l-6.08,6.97H206.34z"></path> <path class="st2" d="M236.12,63.55c0,1.69,0.65,1.89,2.54,1.89c0.55,0,1.69-0.2,1.69-0.2v3.68c0,0-1.54,0.35-3.49,0.35 c-4.13,0-5.13-1.54-5.13-5.78V46.62h-3.44v-3.68h3.44v-6.97h4.38v6.97h4.23v3.68h-4.23V63.55z"></path> <path class="st2" d="M267.39,60.86h4.43c-0.4,4.03-2.44,8.67-11.4,8.67c-8.72,0-12-4.38-12-13.2c0-8.91,3.34-14.09,12.2-14.09 c8.52,0,11.4,4.83,11.4,14.99h-15.54v-3.69h11.06c-0.35-4.63-1.49-7.52-6.97-7.52c-5.48,0-7.57,2.04-7.57,10.11 c0,7.17,1.84,9.61,7.77,9.61C264.76,65.74,266.9,64.7,267.39,60.86z M257.83,39.55l4.03-6.97h5.73l-6.08,6.97H257.83z"></path> </g> <g> <path class="st2" d="M282.14,65.13c1.62,0,2.22,0.59,2.22,2.22c0,1.62-0.59,2.18-2.22,2.18c-1.63,0-2.18-0.55-2.18-2.18 C279.96,65.72,280.52,65.13,282.14,65.13z"></path> <path class="st2" d="M292.95,69.23h-3.25V52.72h-2.77v-2.73h2.77v-1.81c0-4.17,0.41-5.84,4.69-5.84c1.4,0,2.25,0.18,2.25,0.18 v2.88c0,0-0.96-0.11-1.74-0.11c-1.51,0-1.96,0.44-1.96,2.51v2.18h3.4v2.73h-3.4V69.23z"></path> <path class="st2" d="M304.31,52.35c1.18-1.96,2.55-2.81,4.91-2.81c0.92,0,1.44,0.18,1.44,0.18v3.4c0,0-0.63-0.22-1.77-0.22 c-3.18,0-4.36,1.77-4.36,5.5v10.82h-3.25V49.99h3.03V52.35z"></path> </g> </g> <g> <path class="st2" d="M87.21,78.08h1.5v12.11h-1.5V78.08z"></path> <path class="st2" d="M92.29,86.34c0.03,2.03,1.33,2.87,2.83,2.87c1.07,0,1.72-0.19,2.29-0.43l0.26,1.07 c-0.53,0.24-1.43,0.51-2.75,0.51c-2.54,0-4.06-1.67-4.06-4.16s1.47-4.45,3.87-4.45c2.69,0,3.41,2.37,3.41,3.89 c0,0.31-0.03,0.55-0.05,0.7H92.29z M96.69,85.26c0.02-0.96-0.39-2.44-2.08-2.44c-1.52,0-2.18,1.4-2.3,2.44H96.69z"></path> <path class="st2" d="M103.86,88.66c0.44,0.29,1.23,0.6,1.98,0.6c1.09,0,1.6-0.55,1.6-1.23c0-0.72-0.43-1.11-1.53-1.52 c-1.48-0.53-2.18-1.35-2.18-2.34c0-1.33,1.07-2.42,2.85-2.42c0.84,0,1.57,0.24,2.03,0.51l-0.38,1.09 c-0.32-0.2-0.92-0.48-1.69-0.48c-0.89,0-1.38,0.51-1.38,1.13c0,0.68,0.49,0.99,1.57,1.4c1.43,0.55,2.17,1.26,2.17,2.49 c0,1.45-1.13,2.47-3.09,2.47c-0.9,0-1.74-0.22-2.32-0.56L103.86,88.66z"></path> <path class="st2" d="M112.72,79.62c0.02,0.51-0.36,0.92-0.95,0.92c-0.53,0-0.9-0.41-0.9-0.92c0-0.53,0.39-0.94,0.94-0.94 C112.36,78.68,112.72,79.09,112.72,79.62z M111.05,90.19v-8.25h1.5v8.25H111.05z"></path> <path class="st2" d="M117.07,79.57v2.37h2.15v1.14h-2.15v4.45c0,1.02,0.29,1.6,1.13,1.6c0.39,0,0.68-0.05,0.87-0.1l0.07,1.12 c-0.29,0.12-0.75,0.21-1.33,0.21c-0.7,0-1.26-0.22-1.62-0.63c-0.43-0.44-0.58-1.18-0.58-2.15v-4.5h-1.28v-1.14h1.28v-1.98 L117.07,79.57z"></path> <path class="st2" d="M121.87,86.34c0.03,2.03,1.33,2.87,2.83,2.87c1.07,0,1.72-0.19,2.29-0.43l0.26,1.07 c-0.53,0.24-1.43,0.51-2.75,0.51c-2.54,0-4.06-1.67-4.06-4.16s1.47-4.45,3.87-4.45c2.69,0,3.41,2.37,3.41,3.89 c0,0.31-0.03,0.55-0.05,0.7H121.87z M126.27,85.26c0.02-0.96-0.39-2.44-2.08-2.44c-1.52,0-2.18,1.4-2.3,2.44H126.27z"></path> <path class="st2" d="M140.77,78.08v9.98c0,0.73,0.02,1.57,0.07,2.13h-1.35l-0.07-1.43h-0.03c-0.46,0.92-1.47,1.62-2.81,1.62 c-2,0-3.53-1.69-3.53-4.2c-0.02-2.75,1.69-4.43,3.7-4.43c1.26,0,2.11,0.6,2.49,1.26h0.03v-4.93H140.77z M139.27,85.3 c0-0.19-0.02-0.44-0.07-0.63c-0.22-0.96-1.04-1.74-2.17-1.74c-1.55,0-2.47,1.37-2.47,3.19c0,1.67,0.82,3.05,2.44,3.05 c1.01,0,1.93-0.67,2.2-1.79c0.05-0.21,0.07-0.41,0.07-0.65V85.3z"></path> <path class="st2" d="M144.32,86.34c0.03,2.03,1.33,2.87,2.83,2.87c1.07,0,1.72-0.19,2.29-0.43l0.26,1.07 c-0.53,0.24-1.43,0.51-2.75,0.51c-2.54,0-4.06-1.67-4.06-4.16s1.47-4.45,3.87-4.45c2.69,0,3.41,2.37,3.41,3.89 c0,0.31-0.03,0.55-0.05,0.7H144.32z M148.72,85.26c0.02-0.96-0.39-2.44-2.08-2.44c-1.52,0-2.18,1.4-2.3,2.44H148.72z"></path> <path class="st2" d="M156.1,84.51c0-0.97-0.02-1.81-0.07-2.57h1.31l0.05,1.62h0.07c0.37-1.11,1.28-1.81,2.29-1.81 c0.17,0,0.29,0.02,0.43,0.05v1.42c-0.15-0.03-0.31-0.05-0.51-0.05c-1.06,0-1.81,0.8-2.01,1.93c-0.03,0.2-0.07,0.44-0.07,0.7v4.4 h-1.48V84.51z"></path> <path class="st2" d="M162.56,86.34c0.03,2.03,1.33,2.87,2.83,2.87c1.07,0,1.72-0.19,2.29-0.43l0.26,1.07 c-0.53,0.24-1.43,0.51-2.75,0.51c-2.54,0-4.06-1.67-4.06-4.16s1.47-4.45,3.87-4.45c2.69,0,3.41,2.37,3.41,3.89 c0,0.31-0.03,0.55-0.05,0.7H162.56z M166.96,85.26c0.02-0.96-0.39-2.44-2.08-2.44c-1.52,0-2.18,1.4-2.3,2.44H166.96z M167.32,78.37l-2.08,2.44h-1.07l1.5-2.44H167.32z"></path> <path class="st2" d="M170.65,90.19v-7.11h-1.16v-1.14h1.16v-0.39c0-1.16,0.26-2.22,0.96-2.88c0.56-0.55,1.31-0.77,2.01-0.77 c0.53,0,0.99,0.12,1.28,0.24l-0.2,1.16c-0.22-0.1-0.53-0.19-0.95-0.19c-1.28,0-1.6,1.13-1.6,2.39v0.44h2v1.14h-2v7.11H170.65z"></path> <path class="st2" d="M176.32,86.34c0.03,2.03,1.33,2.87,2.83,2.87c1.07,0,1.72-0.19,2.29-0.43l0.26,1.07 c-0.53,0.24-1.43,0.51-2.75,0.51c-2.54,0-4.06-1.67-4.06-4.16s1.47-4.45,3.87-4.45c2.69,0,3.41,2.37,3.41,3.89 c0,0.31-0.03,0.55-0.05,0.7H176.32z M180.72,85.26c0.02-0.96-0.39-2.44-2.08-2.44c-1.52,0-2.18,1.4-2.3,2.44H180.72z M181.07,78.37l-2.08,2.44h-1.07l1.5-2.44H181.07z"></path> <path class="st2" d="M184.25,84.51c0-0.97-0.02-1.81-0.07-2.57h1.31l0.05,1.62h0.07c0.37-1.11,1.28-1.81,2.29-1.81 c0.17,0,0.29,0.02,0.43,0.05v1.42c-0.15-0.03-0.31-0.05-0.51-0.05c-1.06,0-1.81,0.8-2.01,1.93c-0.03,0.2-0.07,0.44-0.07,0.7v4.4 h-1.48V84.51z"></path> <path class="st2" d="M190.72,86.34c0.03,2.03,1.33,2.87,2.83,2.87c1.07,0,1.72-0.19,2.29-0.43l0.26,1.07 c-0.53,0.24-1.43,0.51-2.75,0.51c-2.54,0-4.06-1.67-4.06-4.16s1.47-4.45,3.87-4.45c2.69,0,3.41,2.37,3.41,3.89 c0,0.31-0.03,0.55-0.05,0.7H190.72z M195.12,85.26c0.02-0.96-0.39-2.44-2.08-2.44c-1.52,0-2.18,1.4-2.3,2.44H195.12z"></path> <path class="st2" d="M198.65,84.17c0-0.85-0.02-1.55-0.07-2.23h1.33L200,83.3h0.03c0.41-0.78,1.36-1.55,2.73-1.55 c1.14,0,2.92,0.68,2.92,3.51v4.93h-1.5v-4.76c0-1.33-0.49-2.44-1.91-2.44c-0.99,0-1.76,0.7-2.01,1.54c-0.07,0.19-0.1,0.44-0.1,0.7 v4.96h-1.5V84.17z"></path> <path class="st2" d="M214.23,89.88c-0.39,0.2-1.26,0.48-2.37,0.48c-2.49,0-4.11-1.69-4.11-4.21c0-2.54,1.74-4.38,4.43-4.38 c0.89,0,1.67,0.22,2.08,0.43l-0.34,1.16c-0.36-0.2-0.92-0.39-1.74-0.39c-1.89,0-2.92,1.4-2.92,3.12c0,1.91,1.23,3.09,2.87,3.09 c0.85,0,1.42-0.22,1.84-0.41L214.23,89.88z"></path> <path class="st2" d="M216.94,86.34c0.03,2.03,1.33,2.87,2.83,2.87c1.07,0,1.72-0.19,2.29-0.43l0.26,1.07 c-0.53,0.24-1.43,0.51-2.75,0.51c-2.54,0-4.06-1.67-4.06-4.16s1.47-4.45,3.87-4.45c2.69,0,3.41,2.37,3.41,3.89 c0,0.31-0.03,0.55-0.05,0.7H216.94z M221.34,85.26c0.02-0.96-0.39-2.44-2.08-2.44c-1.52,0-2.18,1.4-2.3,2.44H221.34z"></path> <path class="st2" d="M235.85,78.08v9.98c0,0.73,0.02,1.57,0.07,2.13h-1.35l-0.07-1.43h-0.03c-0.46,0.92-1.47,1.62-2.81,1.62 c-2,0-3.53-1.69-3.53-4.2c-0.02-2.75,1.69-4.43,3.7-4.43c1.26,0,2.11,0.6,2.49,1.26h0.03v-4.93H235.85z M234.35,85.3 c0-0.19-0.02-0.44-0.07-0.63c-0.22-0.96-1.04-1.74-2.17-1.74c-1.55,0-2.47,1.37-2.47,3.19c0,1.67,0.82,3.05,2.44,3.05 c1.01,0,1.93-0.67,2.2-1.79c0.05-0.21,0.07-0.41,0.07-0.65V85.3z"></path> <path class="st2" d="M239.4,86.34c0.03,2.03,1.33,2.87,2.83,2.87c1.07,0,1.72-0.19,2.29-0.43l0.26,1.07 c-0.53,0.24-1.43,0.51-2.75,0.51c-2.54,0-4.06-1.67-4.06-4.16s1.47-4.45,3.87-4.45c2.69,0,3.41,2.37,3.41,3.89 c0,0.31-0.03,0.55-0.05,0.7H239.4z M243.8,85.26c0.02-0.96-0.39-2.44-2.08-2.44c-1.52,0-2.18,1.4-2.3,2.44H243.8z"></path> <path class="st2" d="M251.17,78.08h1.5v12.11h-1.5V78.08z"></path> <path class="st2" d="M257.42,78.51c-0.39,1.43-1.13,3.26-1.6,4.04l-0.96,0.12c0.38-1.01,0.82-2.78,1.01-4.01L257.42,78.51z"></path> <path class="st2" d="M263.54,90.19l-0.12-1.04h-0.05c-0.46,0.65-1.35,1.23-2.52,1.23c-1.67,0-2.52-1.18-2.52-2.37 c0-2,1.77-3.09,4.96-3.07v-0.17c0-0.68-0.19-1.91-1.88-1.91c-0.77,0-1.57,0.24-2.15,0.61l-0.34-0.99 c0.68-0.44,1.67-0.73,2.71-0.73c2.52,0,3.14,1.72,3.14,3.38v3.09c0,0.72,0.03,1.42,0.14,1.98H263.54z M263.32,85.98 c-1.64-0.03-3.5,0.26-3.5,1.86c0,0.97,0.65,1.43,1.42,1.43c1.07,0,1.76-0.68,2-1.38c0.05-0.15,0.09-0.32,0.09-0.48V85.98z"></path> <path class="st2" d="M267.42,84.17c0-0.85-0.02-1.55-0.07-2.23h1.33l0.09,1.36h0.03c0.41-0.78,1.36-1.55,2.73-1.55 c1.14,0,2.92,0.68,2.92,3.51v4.93h-1.5v-4.76c0-1.33-0.49-2.44-1.91-2.44c-0.99,0-1.76,0.7-2.01,1.54c-0.07,0.19-0.1,0.44-0.1,0.7 v4.96h-1.5V84.17z"></path> <path class="st2" d="M277.81,81.94l1.18,1.77c0.31,0.46,0.56,0.89,0.84,1.35h0.05c0.27-0.49,0.55-0.92,0.82-1.36l1.16-1.76h1.62 l-2.81,3.99l2.9,4.26h-1.71l-1.21-1.86c-0.32-0.48-0.6-0.94-0.89-1.43h-0.03c-0.27,0.49-0.56,0.94-0.87,1.43l-1.19,1.86H276 l2.93-4.21l-2.8-4.04H277.81z"></path> <path class="st2" d="M286.9,79.62c0.02,0.51-0.36,0.92-0.95,0.92c-0.53,0-0.9-0.41-0.9-0.92c0-0.53,0.39-0.94,0.94-0.94 C286.55,78.68,286.9,79.09,286.9,79.62z M285.23,90.19v-8.25h1.5v8.25H285.23z"></path> <path class="st2" d="M290.28,86.34c0.03,2.03,1.33,2.87,2.83,2.87c1.07,0,1.72-0.19,2.29-0.43l0.26,1.07 c-0.53,0.24-1.43,0.51-2.75,0.51c-2.54,0-4.06-1.67-4.06-4.16s1.47-4.45,3.87-4.45c2.69,0,3.41,2.37,3.41,3.89 c0,0.31-0.03,0.55-0.05,0.7H290.28z M294.68,85.26c0.02-0.96-0.39-2.44-2.08-2.44c-1.52,0-2.18,1.4-2.3,2.44H294.68z M295.04,78.37l-2.08,2.44h-1.07l1.5-2.44H295.04z"></path> <path class="st2" d="M300.03,79.57v2.37h2.15v1.14h-2.15v4.45c0,1.02,0.29,1.6,1.13,1.6c0.39,0,0.68-0.05,0.87-0.1l0.07,1.12 c-0.29,0.12-0.75,0.21-1.33,0.21c-0.7,0-1.26-0.22-1.62-0.63c-0.43-0.44-0.58-1.18-0.58-2.15v-4.5h-1.28v-1.14h1.28v-1.98 L300.03,79.57z"></path> <path class="st2" d="M304.82,86.34c0.03,2.03,1.33,2.87,2.83,2.87c1.07,0,1.72-0.19,2.29-0.43l0.26,1.07 c-0.53,0.24-1.43,0.51-2.75,0.51c-2.54,0-4.06-1.67-4.06-4.16s1.47-4.45,3.87-4.45c2.69,0,3.41,2.37,3.41,3.89 c0,0.31-0.03,0.55-0.05,0.7H304.82z M309.22,85.26c0.02-0.96-0.39-2.44-2.08-2.44c-1.52,0-2.18,1.4-2.3,2.44H309.22z M309.58,78.37l-2.08,2.44h-1.07l1.5-2.44H309.58z"></path> </g> </g> </svg> 